;TYPE=PLATED
;Layer: PTH_Through
;EasyEDA Pro Client v2.2.38.8, 2025-05-22 15:01:17
;Gerber Generator version 0.3
M48
METRIC,LZ,0000.00000
;Hole size 1 = 0.80000 METRIC
T01C0.80000
;Hole size 2 = 0.91440 METRIC
T02C0.91440
;Hole size 3 = 1.00000 METRIC
T03C1.00000
;Hole size 4 = 1.04999 METRIC
T04C1.04999
;Hole size 5 = 1.10002 METRIC
T05C1.10002
;Hole size 6 = 1.20000 METRIC
T06C1.20000
%
G05
G90
T01
X33.001Y-36.3631G85X33.801Y-36.3631
X33.001Y-44.66311G85X33.801Y-44.66311
X19.685Y-44.31299
X19.685Y-36.71301
X22.225Y-44.31299
X22.225Y-36.71301
X24.765Y-44.31299
X24.765Y-36.71301
X27.305Y-44.31299
X27.305Y-36.71301
T02
X33.401Y-42.513
X33.401Y-40.513
X33.401Y-38.513
T03
X13.57899Y-40.132
X5.97901Y-40.132
T04
X13.843Y-5.08
X16.383Y-5.08
X18.923Y-5.08
X21.463Y-5.08
T05
X34.163Y-5.588
X34.163Y-8.128
X34.163Y-10.668
X34.163Y-13.208
T06
X10.74301Y-55.20901
X4.24299Y-55.20901
X10.74301Y-50.70899
X4.24299Y-50.70899
X32.33301Y-55.20901
X25.83299Y-55.20901
X32.33301Y-50.70899
X25.83299Y-50.70899
X20.64901Y-55.20901
X14.14899Y-55.20901
X20.64901Y-50.70899
X14.14899Y-50.70899
M30