G04 Layer: TopSilkscreenLayer*
G04 EasyEDA Pro v2.2.38.8, 2025-05-22 15:01:17*
G04 Gerber Generator version 0.3*
G04 Scale: 100 percent, Rotated: No, Reflected: No*
G04 Dimensions in millimeters*
G04 Leading zeros omitted, absolute positions, 4 integers and 5 decimals*
%FSLAX45Y45*%
%MOMM*%
%ADD10C,0.1524*%
%ADD11C,0.254*%
G75*


G04 Text Start*
G54D10*
G01X572529Y-3805174D02*
G01X572529Y-3868166D01*
G01X541033Y-3836670D02*
G01X604025Y-3836670D01*
G01X372809Y-3293567D02*
G01X372809Y-3358591D01*
G01X372809Y-3293567D02*
G01X400749Y-3293567D01*
G01X409893Y-3296615D01*
G01X412941Y-3299663D01*
G01X416243Y-3306013D01*
G01X416243Y-3312109D01*
G01X412941Y-3318205D01*
G01X409893Y-3321253D01*
G01X400749Y-3324555D01*
G01X372809Y-3324555D02*
G01X400749Y-3324555D01*
G01X409893Y-3327603D01*
G01X412941Y-3330651D01*
G01X416243Y-3336747D01*
G01X416243Y-3346145D01*
G01X412941Y-3352241D01*
G01X409893Y-3355543D01*
G01X400749Y-3358591D01*
G01X372809Y-3358591D01*
G01X446469Y-3293567D02*
G01X446469Y-3340049D01*
G01X449517Y-3349193D01*
G01X455613Y-3355543D01*
G01X465011Y-3358591D01*
G01X471107Y-3358591D01*
G01X480505Y-3355543D01*
G01X486601Y-3349193D01*
G01X489649Y-3340049D01*
G01X489649Y-3293567D01*
G01X563055Y-3293567D02*
G01X519875Y-3358591D01*
G01X519875Y-3293567D02*
G01X563055Y-3293567D01*
G01X519875Y-3358591D02*
G01X563055Y-3358591D01*
G01X636461Y-3293567D02*
G01X593281Y-3358591D01*
G01X593281Y-3293567D02*
G01X636461Y-3293567D01*
G01X593281Y-3358591D02*
G01X636461Y-3358591D01*
G01X666687Y-3293567D02*
G01X666687Y-3358591D01*
G01X666687Y-3293567D02*
G01X706819Y-3293567D01*
G01X666687Y-3324555D02*
G01X691325Y-3324555D01*
G01X666687Y-3358591D02*
G01X706819Y-3358591D01*
G01X737045Y-3293567D02*
G01X737045Y-3358591D01*
G01X737045Y-3293567D02*
G01X764731Y-3293567D01*
G01X774129Y-3296615D01*
G01X777177Y-3299663D01*
G01X780225Y-3306013D01*
G01X780225Y-3312109D01*
G01X777177Y-3318205D01*
G01X774129Y-3321253D01*
G01X764731Y-3324555D01*
G01X737045Y-3324555D01*
G01X758635Y-3324555D02*
G01X780225Y-3358591D01*
G01X810451Y-3306013D02*
G01X816547Y-3302711D01*
G01X825691Y-3293567D01*
G01X825691Y-3358591D01*
G01X3662934Y-426720D02*
G01X3597910Y-426720D01*
G01X3662934Y-470154D02*
G01X3597910Y-470154D01*
G01X3631946Y-426720D02*
G01X3631946Y-470154D01*
G01X3650488Y-500380D02*
G01X3653790Y-506476D01*
G01X3662934Y-515620D01*
G01X3597910Y-515620D01*
G01X3009610Y-4485256D02*
G01X3003514Y-4491606D01*
G01X3000466Y-4500750D01*
G01X3000466Y-4513196D01*
G01X3003514Y-4522594D01*
G01X3009610Y-4528690D01*
G01X3015960Y-4528690D01*
G01X3022056Y-4525642D01*
G01X3025104Y-4522594D01*
G01X3028152Y-4516244D01*
G01X3034502Y-4497702D01*
G01X3037550Y-4491606D01*
G01X3040598Y-4488558D01*
G01X3046948Y-4485256D01*
G01X3056092Y-4485256D01*
G01X3062442Y-4491606D01*
G01X3065490Y-4500750D01*
G01X3065490Y-4513196D01*
G01X3062442Y-4522594D01*
G01X3056092Y-4528690D01*
G01X3000466Y-4455030D02*
G01X3065490Y-4439790D01*
G01X3000466Y-4424296D02*
G01X3065490Y-4439790D01*
G01X3000466Y-4424296D02*
G01X3065490Y-4408802D01*
G01X3000466Y-4393308D02*
G01X3065490Y-4408802D01*
G01X3012912Y-4363082D02*
G01X3009610Y-4356986D01*
G01X3000466Y-4347842D01*
G01X3065490Y-4347842D01*
G01X830326Y-4829810D02*
G01X823976Y-4823714D01*
G01X814832Y-4820666D01*
G01X802386Y-4820666D01*
G01X792988Y-4823714D01*
G01X786892Y-4829810D01*
G01X786892Y-4836160D01*
G01X789940Y-4842256D01*
G01X792988Y-4845304D01*
G01X799338Y-4848352D01*
G01X817880Y-4854702D01*
G01X823976Y-4857750D01*
G01X827024Y-4860798D01*
G01X830326Y-4867148D01*
G01X830326Y-4876292D01*
G01X823976Y-4882642D01*
G01X814832Y-4885690D01*
G01X802386Y-4885690D01*
G01X792988Y-4882642D01*
G01X786892Y-4876292D01*
G01X860552Y-4820666D02*
G01X875792Y-4885690D01*
G01X891286Y-4820666D02*
G01X875792Y-4885690D01*
G01X891286Y-4820666D02*
G01X906780Y-4885690D01*
G01X922274Y-4820666D02*
G01X906780Y-4885690D01*
G01X955548Y-4836160D02*
G01X955548Y-4833112D01*
G01X958596Y-4826762D01*
G01X961644Y-4823714D01*
G01X967740Y-4820666D01*
G01X980186Y-4820666D01*
G01X986536Y-4823714D01*
G01X989584Y-4826762D01*
G01X992632Y-4833112D01*
G01X992632Y-4839208D01*
G01X989584Y-4845304D01*
G01X983234Y-4854702D01*
G01X952500Y-4885690D01*
G01X995680Y-4885690D01*
G01X2925826Y-4842510D02*
G01X2919476Y-4836414D01*
G01X2910332Y-4833366D01*
G01X2897886Y-4833366D01*
G01X2888488Y-4836414D01*
G01X2882392Y-4842510D01*
G01X2882392Y-4848860D01*
G01X2885440Y-4854956D01*
G01X2888488Y-4858004D01*
G01X2894838Y-4861052D01*
G01X2913380Y-4867402D01*
G01X2919476Y-4870450D01*
G01X2922524Y-4873498D01*
G01X2925826Y-4879848D01*
G01X2925826Y-4888992D01*
G01X2919476Y-4895342D01*
G01X2910332Y-4898390D01*
G01X2897886Y-4898390D01*
G01X2888488Y-4895342D01*
G01X2882392Y-4888992D01*
G01X2956052Y-4833366D02*
G01X2971292Y-4898390D01*
G01X2986786Y-4833366D02*
G01X2971292Y-4898390D01*
G01X2986786Y-4833366D02*
G01X3002280Y-4898390D01*
G01X3017774Y-4833366D02*
G01X3002280Y-4898390D01*
G01X3054096Y-4833366D02*
G01X3088132Y-4833366D01*
G01X3069590Y-4858004D01*
G01X3078734Y-4858004D01*
G01X3085084Y-4861052D01*
G01X3088132Y-4864354D01*
G01X3091180Y-4873498D01*
G01X3091180Y-4879848D01*
G01X3088132Y-4888992D01*
G01X3082036Y-4895342D01*
G01X3072638Y-4898390D01*
G01X3063240Y-4898390D01*
G01X3054096Y-4895342D01*
G01X3051048Y-4892040D01*
G01X3048000Y-4885944D01*
G01X1652778Y-4817110D02*
G01X1646428Y-4811014D01*
G01X1637284Y-4807966D01*
G01X1624838Y-4807966D01*
G01X1615440Y-4811014D01*
G01X1609344Y-4817110D01*
G01X1609344Y-4823460D01*
G01X1612392Y-4829556D01*
G01X1615440Y-4832604D01*
G01X1621790Y-4835652D01*
G01X1640332Y-4842002D01*
G01X1646428Y-4845050D01*
G01X1649476Y-4848098D01*
G01X1652778Y-4854448D01*
G01X1652778Y-4863592D01*
G01X1646428Y-4869942D01*
G01X1637284Y-4872990D01*
G01X1624838Y-4872990D01*
G01X1615440Y-4869942D01*
G01X1609344Y-4863592D01*
G01X1683004Y-4807966D02*
G01X1698244Y-4872990D01*
G01X1713738Y-4807966D02*
G01X1698244Y-4872990D01*
G01X1713738Y-4807966D02*
G01X1729232Y-4872990D01*
G01X1744726Y-4807966D02*
G01X1729232Y-4872990D01*
G01X1805686Y-4807966D02*
G01X1774952Y-4851146D01*
G01X1821180Y-4851146D01*
G01X1805686Y-4807966D02*
G01X1805686Y-4872990D01*
G01X1785620Y-3476856D02*
G01X1785620Y-3523338D01*
G01X1788668Y-3532482D01*
G01X1795018Y-3538832D01*
G01X1804162Y-3541880D01*
G01X1810512Y-3541880D01*
G01X1819656Y-3538832D01*
G01X1825752Y-3532482D01*
G01X1829054Y-3523338D01*
G01X1829054Y-3476856D01*
G01X1859280Y-3489302D02*
G01X1865376Y-3486000D01*
G01X1874520Y-3476856D01*
G01X1874520Y-3541880D01*
G01X399969Y-168112D02*
G01X399969Y-214594D01*
G01X403017Y-223738D01*
G01X409367Y-230088D01*
G01X418511Y-233136D01*
G01X424861Y-233136D01*
G01X434005Y-230088D01*
G01X440101Y-223738D01*
G01X443403Y-214594D01*
G01X443403Y-168112D01*
G01X476677Y-183606D02*
G01X476677Y-180558D01*
G01X479725Y-174208D01*
G01X482773Y-171160D01*
G01X488869Y-168112D01*
G01X501315Y-168112D01*
G01X507665Y-171160D01*
G01X510713Y-174208D01*
G01X513761Y-180558D01*
G01X513761Y-186654D01*
G01X510713Y-192750D01*
G01X504363Y-202148D01*
G01X473629Y-233136D01*
G01X516809Y-233136D01*
G04 Text End*

G04 PolygonModel Start*
G54D11*
G01X3543300Y-688152D02*
G01X3543300Y-1447800D01*
G01X3543300Y-1447800D02*
G01X3289300Y-1447800D01*
G01X3289300Y-1447800D02*
G01X3289300Y-431800D01*
G01X3289300Y-431800D02*
G01X3543300Y-431800D01*
G01X3543300Y-431800D02*
G01X3543300Y-688152D01*
G01X3543300Y-688152D02*
G01X3289300Y-688152D01*
G01X3559998Y-4251881D02*
G01X3825100Y-4251881D01*
G01X3825100Y-4251881D02*
G01X3825100Y-4051300D01*
G01X3825100Y-4051300D02*
G01X3559998Y-4051300D01*
G01X3559998Y-3616198D02*
G01X3559998Y-4486199D01*
G01X3120100Y-4486300D02*
G01X3120100Y-3616300D01*
G01X3120100Y-3616300D02*
G01X3209163Y-3616300D01*
G01X3471037Y-3616300D02*
G01X3559998Y-3616300D01*
G01X3559998Y-4486199D02*
G01X3471060Y-4486199D01*
G01X3209140Y-4486199D02*
G01X3120100Y-4486199D01*
G01X989711Y-5595899D02*
G01X508889Y-5595899D01*
G01X449301Y-5410591D02*
G01X449301Y-5181209D01*
G01X508889Y-4995901D02*
G01X989711Y-4995901D01*
G01X1049299Y-5181209D02*
G01X1049299Y-5410591D01*
G01X3148711Y-5595899D02*
G01X2667889Y-5595899D01*
G01X2608301Y-5410591D02*
G01X2608301Y-5181209D01*
G01X2667889Y-4995901D02*
G01X3148711Y-4995901D01*
G01X3208299Y-5181209D02*
G01X3208299Y-5410591D01*
G01X1980311Y-5595899D02*
G01X1499489Y-5595899D01*
G01X1439901Y-5410591D02*
G01X1439901Y-5181209D01*
G01X1499489Y-4995901D02*
G01X1980311Y-4995901D01*
G01X2039899Y-5181209D02*
G01X2039899Y-5410591D01*
G54D10*
G01X1851881Y-4133799D02*
G01X1851881Y-4320939D01*
G01X1851881Y-4320939D02*
G01X2847119Y-4320939D01*
G01X2847119Y-4320939D02*
G01X2847119Y-3781661D01*
G01X2847119Y-3781661D02*
G01X1851881Y-3781661D01*
G01X1851881Y-3781661D02*
G01X1851881Y-3968801D01*
G01X1851881Y-4133800D02*
G03X1851881Y-3968800I0J82500D01*
G54D11*
G01X2273300Y-633001D02*
G01X2273300Y-383002D01*
G01X1257300Y-383002D02*
G01X1257300Y-633004D01*
G01X1257300Y-383002D02*
G01X2273300Y-383002D01*
G01X1257300Y-633004D02*
G01X2273300Y-633001D01*
G01X405384Y-288036D02*
G01X3125216Y-288036D01*
G01X3125216Y-288036D02*
G01X3125216Y-3068066D01*
G01X3125216Y-3068066D02*
G01X2415286Y-3068066D01*
G01X2415286Y-3068066D02*
G01X2415286Y-2692908D01*
G01X2415286Y-2692908D02*
G01X1130300Y-2692908D01*
G01X1130300Y-2692908D02*
G01X1130300Y-3068066D01*
G01X1130300Y-3068066D02*
G01X405384Y-3068066D01*
G01X405384Y-3068066D02*
G01X405384Y-288036D01*

G04 Circle Start*
G01X850887Y-4013200D02*
G03X1104887Y-4013200I127000J0D01*
G03X850887Y-4013200I-127000J0D01*
G01X377889Y-4013200D02*
G03X1577886Y-4013200I599999J0D01*
G03X377889Y-4013200I-599999J0D01*
G01X569290Y-5295900D02*
G03X929310Y-5295900I180010J0D01*
G03X569290Y-5295900I-180010J0D01*
G01X524561Y-5475884D02*
G03X614020Y-5475884I44729J0D01*
G03X524561Y-5475884I-44729J0D01*
G01X884580Y-5475910D02*
G03X974039Y-5475910I44729J0D01*
G03X884580Y-5475910I-44729J0D01*
G01X884580Y-5115890D02*
G03X974039Y-5115890I44729J0D01*
G03X884580Y-5115890I-44729J0D01*
G01X524561Y-5115890D02*
G03X614020Y-5115890I44729J0D01*
G03X524561Y-5115890I-44729J0D01*
G01X2728290Y-5295900D02*
G03X3088310Y-5295900I180010J0D01*
G03X2728290Y-5295900I-180010J0D01*
G01X2683561Y-5475884D02*
G03X2773020Y-5475884I44729J0D01*
G03X2683561Y-5475884I-44729J0D01*
G01X3043580Y-5475910D02*
G03X3133039Y-5475910I44729J0D01*
G03X3043580Y-5475910I-44729J0D01*
G01X3043580Y-5115890D02*
G03X3133039Y-5115890I44729J0D01*
G03X3043580Y-5115890I-44729J0D01*
G01X2683561Y-5115890D02*
G03X2773020Y-5115890I44729J0D01*
G03X2683561Y-5115890I-44729J0D01*
G01X1559890Y-5295900D02*
G03X1919910Y-5295900I180010J0D01*
G03X1559890Y-5295900I-180010J0D01*
G01X1515161Y-5475884D02*
G03X1604620Y-5475884I44729J0D01*
G03X1515161Y-5475884I-44729J0D01*
G01X1875180Y-5475910D02*
G03X1964639Y-5475910I44729J0D01*
G03X1875180Y-5475910I-44729J0D01*
G01X1875180Y-5115890D02*
G03X1964639Y-5115890I44729J0D01*
G03X1875180Y-5115890I-44729J0D01*
G01X1515161Y-5115890D02*
G03X1604620Y-5115890I44729J0D01*
G03X1515161Y-5115890I-44729J0D01*
G01X1790700Y-4406900D02*
G03X1841500Y-4406900I25400J0D01*
G03X1790700Y-4406900I-25400J0D01*
G01X463296Y-488010D02*
G03X717296Y-488010I127000J0D01*
G03X463296Y-488010I-127000J0D01*
G01X2813304Y-488010D02*
G03X3067304Y-488010I127000J0D01*
G03X2813304Y-488010I-127000J0D01*
G01X2813304Y-2867990D02*
G03X3067304Y-2867990I127000J0D01*
G03X2813304Y-2867990I-127000J0D01*
G01X463296Y-2867990D02*
G03X717296Y-2867990I127000J0D01*
G03X463296Y-2867990I-127000J0D01*
G04 Circle End*

M02*

