G04 Layer: BottomSilkscreenLayer*
G04 EasyEDA Pro v2.2.38.8, 2025-05-22 15:01:17*
G04 Gerber Generator version 0.3*
G04 Scale: 100 percent, Rotated: No, Reflected: No*
G04 Dimensions in millimeters*
G04 Leading zeros omitted, absolute positions, 4 integers and 5 decimals*
%FSLAX45Y45*%
%MOMM*%
%ADD10C,0.2032*%
%ADD11C,0.1524*%
%ADD12C,0.254*%
G75*


G04 Text Start*
G54D10*
G01X2816797Y-1516405D02*
G01X2816797Y-1619275D01*
G01X2868359Y-1567713D02*
G01X2765489Y-1567713D01*
G01X925259Y-2863113D02*
G01X822389Y-2863113D01*
G54D11*
G01X3422429Y-1277478D02*
G01X3422429Y-1342502D01*
G01X3422429Y-1277478D02*
G01X3394489Y-1277478D01*
G01X3385345Y-1280526D01*
G01X3382297Y-1283574D01*
G01X3378995Y-1289924D01*
G01X3378995Y-1296020D01*
G01X3382297Y-1302116D01*
G01X3385345Y-1305164D01*
G01X3394489Y-1308466D01*
G01X3422429Y-1308466D02*
G01X3394489Y-1308466D01*
G01X3385345Y-1311514D01*
G01X3382297Y-1314562D01*
G01X3378995Y-1320658D01*
G01X3378995Y-1330056D01*
G01X3382297Y-1336152D01*
G01X3385345Y-1339454D01*
G01X3394489Y-1342502D01*
G01X3422429Y-1342502D01*
G01X3327179Y-1277478D02*
G01X3327179Y-1342502D01*
G01X3348769Y-1277478D02*
G01X3305589Y-1277478D01*
G01X3275363Y-1289924D02*
G01X3269267Y-1286622D01*
G01X3260123Y-1277478D01*
G01X3260123Y-1342502D01*
G04 Text End*

G04 PolygonModel Start*
G54D12*
G01X2817330Y-2997114D02*
G01X728792Y-2997114D01*
G01X2928790Y-2547107D02*
G01X2928790Y-2885636D01*
G01X2928790Y-2885636D02*
G01X2817330Y-2997114D01*
G01X398798Y-2430221D02*
G01X398798Y-2547107D01*
G01X398798Y-1847113D02*
G01X398798Y-1963999D01*
G01X2928790Y-2547107D02*
G01X3258790Y-2547107D01*
G01X3258790Y-2430221D02*
G01X3258790Y-2547107D01*
G01X3258790Y-1847113D02*
G01X3258790Y-1963999D01*
G01X728792Y-2547107D02*
G01X398798Y-2547107D01*
G01X728792Y-1847113D02*
G01X398798Y-1847113D01*
G01X2928790Y-1397112D02*
G01X2928790Y-1847113D01*
G01X2928790Y-1847113D02*
G01X3258790Y-1847113D01*
G01X728792Y-2997114D02*
G01X728792Y-2547107D01*
G01X728792Y-1397112D02*
G01X728792Y-1847113D01*
G01X2928790Y-1397112D02*
G01X728792Y-1397112D01*

M02*

