G04 Layer: TopLayer*
G04 EasyEDA Pro v2.2.38.8, 2025-05-22 15:01:17*
G04 Gerber Generator version 0.3*
G04 Scale: 100 percent, Rotated: No, Reflected: No*
G04 Dimensions in millimeters*
G04 Leading zeros omitted, absolute positions, 4 integers and 5 decimals*
%FSLAX45Y45*%
%MOMM*%
%ADD10C,0.2032*%
%ADD11C,0.254*%
%ADD12C,1.8*%
%ADD13R,1.7X1.7*%
%ADD14C,1.7*%
%ADD15C,1.524*%
%ADD16O,2.2061X1.4*%
%ADD17O,2.2X1.4*%
%ADD18O,1.4X1.75001*%
G75*


G04 Copper Start*
G36*
G01X3634486Y-10414D02*
G01X3634486Y-5907786D01*
G01X35814Y-5907786D01*
G01X35814Y-5520893D01*
G01X298493Y-5520893D01*
G01X300405Y-5542741D01*
G01X306081Y-5563924D01*
G01X315349Y-5583800D01*
G01X327928Y-5601765D01*
G01X343435Y-5617272D01*
G01X361400Y-5629851D01*
G01X381276Y-5639120D01*
G01X402460Y-5644796D01*
G01X424307Y-5646707D01*
G01X446154Y-5644796D01*
G01X467338Y-5639120D01*
G01X487214Y-5629851D01*
G01X505179Y-5617272D01*
G01X520686Y-5601765D01*
G01X533265Y-5583800D01*
G01X542533Y-5563924D01*
G01X548209Y-5542741D01*
G01X550121Y-5520893D01*
G01X550121Y-5520893D01*
G01X948479Y-5520893D01*
G01X950391Y-5542741D01*
G01X956067Y-5563924D01*
G01X965335Y-5583800D01*
G01X977914Y-5601765D01*
G01X993421Y-5617272D01*
G01X1011386Y-5629851D01*
G01X1031262Y-5639120D01*
G01X1052446Y-5644796D01*
G01X1074293Y-5646707D01*
G01X1096140Y-5644796D01*
G01X1117324Y-5639120D01*
G01X1137200Y-5629851D01*
G01X1155165Y-5617272D01*
G01X1170672Y-5601765D01*
G01X1183251Y-5583800D01*
G01X1192519Y-5563924D01*
G01X1198195Y-5542741D01*
G01X1200107Y-5520893D01*
G01X1200107Y-5520893D01*
G01X1289093Y-5520893D01*
G01X1291005Y-5542741D01*
G01X1296681Y-5563924D01*
G01X1305949Y-5583800D01*
G01X1318528Y-5601765D01*
G01X1334035Y-5617272D01*
G01X1352000Y-5629851D01*
G01X1371876Y-5639120D01*
G01X1393060Y-5644796D01*
G01X1414907Y-5646707D01*
G01X1436754Y-5644796D01*
G01X1457938Y-5639120D01*
G01X1477814Y-5629851D01*
G01X1495779Y-5617272D01*
G01X1511286Y-5601765D01*
G01X1523865Y-5583800D01*
G01X1533133Y-5563924D01*
G01X1538809Y-5542741D01*
G01X1540721Y-5520893D01*
G01X1540721Y-5520893D01*
G01X1939079Y-5520893D01*
G01X1940991Y-5542741D01*
G01X1946667Y-5563924D01*
G01X1955935Y-5583800D01*
G01X1968514Y-5601765D01*
G01X1984021Y-5617272D01*
G01X2001986Y-5629851D01*
G01X2021862Y-5639120D01*
G01X2043046Y-5644796D01*
G01X2064893Y-5646707D01*
G01X2086740Y-5644796D01*
G01X2107924Y-5639120D01*
G01X2127800Y-5629851D01*
G01X2145765Y-5617272D01*
G01X2161272Y-5601765D01*
G01X2173851Y-5583800D01*
G01X2183119Y-5563924D01*
G01X2188795Y-5542741D01*
G01X2190707Y-5520893D01*
G01X2190707Y-5520893D01*
G01X2457493Y-5520893D01*
G01X2459405Y-5542741D01*
G01X2465081Y-5563924D01*
G01X2474349Y-5583800D01*
G01X2486928Y-5601765D01*
G01X2502435Y-5617272D01*
G01X2520400Y-5629851D01*
G01X2540276Y-5639120D01*
G01X2561460Y-5644796D01*
G01X2583307Y-5646707D01*
G01X2605154Y-5644796D01*
G01X2626338Y-5639120D01*
G01X2646214Y-5629851D01*
G01X2664179Y-5617272D01*
G01X2679686Y-5601765D01*
G01X2692265Y-5583800D01*
G01X2701533Y-5563924D01*
G01X2707209Y-5542741D01*
G01X2709121Y-5520893D01*
G01X2709121Y-5520893D01*
G01X3107479Y-5520893D01*
G01X3109391Y-5542741D01*
G01X3115067Y-5563924D01*
G01X3124335Y-5583800D01*
G01X3136914Y-5601765D01*
G01X3152421Y-5617272D01*
G01X3170386Y-5629851D01*
G01X3190262Y-5639120D01*
G01X3211446Y-5644796D01*
G01X3233293Y-5646707D01*
G01X3255140Y-5644796D01*
G01X3276324Y-5639120D01*
G01X3296200Y-5629851D01*
G01X3314165Y-5617272D01*
G01X3329672Y-5601765D01*
G01X3342251Y-5583800D01*
G01X3351519Y-5563924D01*
G01X3357195Y-5542741D01*
G01X3359107Y-5520893D01*
G01X3359107Y-5520893D01*
G01X3357195Y-5499046D01*
G01X3351519Y-5477862D01*
G01X3342251Y-5457986D01*
G01X3329672Y-5440022D01*
G01X3314165Y-5424514D01*
G01X3296200Y-5411935D01*
G01X3276324Y-5402667D01*
G01X3255140Y-5396991D01*
G01X3233293Y-5395079D01*
G01X3211446Y-5396991D01*
G01X3190262Y-5402667D01*
G01X3170386Y-5411935D01*
G01X3152421Y-5424514D01*
G01X3136914Y-5440022D01*
G01X3124335Y-5457986D01*
G01X3115067Y-5477862D01*
G01X3109391Y-5499046D01*
G01X3107479Y-5520893D01*
G01X2709121Y-5520893D01*
G01X2707209Y-5499046D01*
G01X2701533Y-5477862D01*
G01X2692265Y-5457986D01*
G01X2679686Y-5440022D01*
G01X2664179Y-5424514D01*
G01X2646214Y-5411935D01*
G01X2626338Y-5402667D01*
G01X2605154Y-5396991D01*
G01X2583307Y-5395079D01*
G01X2561460Y-5396991D01*
G01X2540276Y-5402667D01*
G01X2520400Y-5411935D01*
G01X2502435Y-5424514D01*
G01X2486928Y-5440022D01*
G01X2474349Y-5457986D01*
G01X2465081Y-5477862D01*
G01X2459405Y-5499046D01*
G01X2457493Y-5520893D01*
G01X2190707Y-5520893D01*
G01X2188795Y-5499046D01*
G01X2183119Y-5477862D01*
G01X2173851Y-5457986D01*
G01X2161272Y-5440022D01*
G01X2145765Y-5424514D01*
G01X2127800Y-5411935D01*
G01X2107924Y-5402667D01*
G01X2086740Y-5396991D01*
G01X2064893Y-5395079D01*
G01X2043046Y-5396991D01*
G01X2021862Y-5402667D01*
G01X2001986Y-5411935D01*
G01X1984021Y-5424514D01*
G01X1968514Y-5440022D01*
G01X1955935Y-5457986D01*
G01X1946667Y-5477862D01*
G01X1940991Y-5499046D01*
G01X1939079Y-5520893D01*
G01X1540721Y-5520893D01*
G01X1538809Y-5499046D01*
G01X1533133Y-5477862D01*
G01X1523865Y-5457986D01*
G01X1511286Y-5440022D01*
G01X1495779Y-5424514D01*
G01X1477814Y-5411935D01*
G01X1457938Y-5402667D01*
G01X1436754Y-5396991D01*
G01X1414907Y-5395079D01*
G01X1393060Y-5396991D01*
G01X1371876Y-5402667D01*
G01X1352000Y-5411935D01*
G01X1334035Y-5424514D01*
G01X1318528Y-5440022D01*
G01X1305949Y-5457986D01*
G01X1296681Y-5477862D01*
G01X1291005Y-5499046D01*
G01X1289093Y-5520893D01*
G01X1200107Y-5520893D01*
G01X1198195Y-5499046D01*
G01X1192519Y-5477862D01*
G01X1183251Y-5457986D01*
G01X1170672Y-5440022D01*
G01X1155165Y-5424514D01*
G01X1137200Y-5411935D01*
G01X1117324Y-5402667D01*
G01X1096140Y-5396991D01*
G01X1074293Y-5395079D01*
G01X1052446Y-5396991D01*
G01X1031262Y-5402667D01*
G01X1011386Y-5411935D01*
G01X993421Y-5424514D01*
G01X977914Y-5440022D01*
G01X965335Y-5457986D01*
G01X956067Y-5477862D01*
G01X950391Y-5499046D01*
G01X948479Y-5520893D01*
G01X550121Y-5520893D01*
G01X548209Y-5499046D01*
G01X542533Y-5477862D01*
G01X533265Y-5457986D01*
G01X520686Y-5440022D01*
G01X505179Y-5424514D01*
G01X487214Y-5411935D01*
G01X467338Y-5402667D01*
G01X446154Y-5396991D01*
G01X424307Y-5395079D01*
G01X402460Y-5396991D01*
G01X381276Y-5402667D01*
G01X361400Y-5411935D01*
G01X343435Y-5424514D01*
G01X327928Y-5440022D01*
G01X315349Y-5457986D01*
G01X306081Y-5477862D01*
G01X300405Y-5499046D01*
G01X298493Y-5520893D01*
G01X35814Y-5520893D01*
G01X35814Y-5070907D01*
G01X298493Y-5070907D01*
G01X300405Y-5092754D01*
G01X306081Y-5113938D01*
G01X315349Y-5133814D01*
G01X327928Y-5151778D01*
G01X343435Y-5167286D01*
G01X361400Y-5179865D01*
G01X381276Y-5189133D01*
G01X402460Y-5194809D01*
G01X424307Y-5196721D01*
G01X446154Y-5194809D01*
G01X467338Y-5189133D01*
G01X487214Y-5179865D01*
G01X505179Y-5167286D01*
G01X520686Y-5151778D01*
G01X533265Y-5133814D01*
G01X542533Y-5113938D01*
G01X548209Y-5092754D01*
G01X550121Y-5070907D01*
G01X550121Y-5070907D01*
G01X548209Y-5049059D01*
G01X542533Y-5027876D01*
G01X533265Y-5008000D01*
G01X520686Y-4990035D01*
G01X505179Y-4974528D01*
G01X487214Y-4961949D01*
G01X467338Y-4952680D01*
G01X446154Y-4947004D01*
G01X424307Y-4945093D01*
G01X402460Y-4947004D01*
G01X381276Y-4952680D01*
G01X361400Y-4961949D01*
G01X343435Y-4974528D01*
G01X327928Y-4990035D01*
G01X315349Y-5008000D01*
G01X306081Y-5027876D01*
G01X300405Y-5049059D01*
G01X298493Y-5070907D01*
G01X35814Y-5070907D01*
G01X35814Y-4004068D01*
G01X472421Y-4004068D01*
G01X472705Y-4025631D01*
G01X476667Y-4046828D01*
G01X484190Y-4067037D01*
G01X495054Y-4085665D01*
G01X508939Y-4102164D01*
G01X525438Y-4116049D01*
G01X544066Y-4126913D01*
G01X564275Y-4134436D01*
G01X585472Y-4138398D01*
G01X607035Y-4138682D01*
G01X628329Y-4135279D01*
G01X648729Y-4128291D01*
G01X667636Y-4117921D01*
G01X684495Y-4104474D01*
G01X698810Y-4088347D01*
G01X710160Y-4070011D01*
G01X718213Y-4050007D01*
G01X722731Y-4028922D01*
G01X722991Y-4022332D01*
G01X1232415Y-4022332D01*
G01X1235817Y-4043626D01*
G01X1242806Y-4064026D01*
G01X1253176Y-4082933D01*
G01X1266622Y-4099792D01*
G01X1282750Y-4114106D01*
G01X1301085Y-4125457D01*
G01X1321090Y-4133509D01*
G01X1342175Y-4138028D01*
G01X1363723Y-4138879D01*
G01X1385099Y-4136038D01*
G01X1405676Y-4129588D01*
G01X1455239Y-4179152D01*
G01X1465287Y-4186862D01*
G01X1476988Y-4191708D01*
G01X1489544Y-4193361D01*
G01X1648252Y-4193361D01*
G01X1862848Y-4407957D01*
G01X1862686Y-4413809D01*
G01X1862686Y-4413809D01*
G01X1862686Y-4448810D01*
G01X1864488Y-4468253D01*
G01X1869832Y-4487034D01*
G01X1878535Y-4504514D01*
G01X1890303Y-4520096D01*
G01X1904733Y-4533251D01*
G01X1921335Y-4543531D01*
G01X1939543Y-4550584D01*
G01X1958737Y-4554172D01*
G01X1978263Y-4554172D01*
G01X1997457Y-4550584D01*
G01X2015665Y-4543531D01*
G01X2032267Y-4533251D01*
G01X2046697Y-4520096D01*
G01X2058465Y-4504514D01*
G01X2067168Y-4487034D01*
G01X2072512Y-4468253D01*
G01X2074314Y-4448810D01*
G01X2074314Y-4413809D01*
G01X2072385Y-4393698D01*
G01X2066669Y-4374320D01*
G01X2057375Y-4356381D01*
G01X2044840Y-4340537D01*
G01X2029522Y-4327363D01*
G01X2011980Y-4317341D01*
G01X1992853Y-4310835D01*
G01X1972838Y-4308084D01*
G01X1952664Y-4309187D01*
G01X1933068Y-4314103D01*
G01X1914764Y-4322655D01*
G01X1702652Y-4110543D01*
G01X1692604Y-4102833D01*
G01X1680904Y-4097986D01*
G01X1668347Y-4096333D01*
G01X1509639Y-4096333D01*
G01X1474285Y-4060979D01*
G01X1480735Y-4040402D01*
G01X1483576Y-4019026D01*
G01X1482724Y-3997478D01*
G01X1478206Y-3976393D01*
G01X1470153Y-3956389D01*
G01X1458803Y-3938053D01*
G01X1444488Y-3921926D01*
G01X1427630Y-3908479D01*
G01X1408723Y-3898109D01*
G01X1388322Y-3891121D01*
G01X1367028Y-3887718D01*
G01X1345466Y-3888002D01*
G01X1324269Y-3891964D01*
G01X1304059Y-3899487D01*
G01X1285432Y-3910351D01*
G01X1268933Y-3924236D01*
G01X1255048Y-3940735D01*
G01X1244184Y-3959363D01*
G01X1236660Y-3979572D01*
G01X1232698Y-4000769D01*
G01X1232415Y-4022332D01*
G01X722991Y-4022332D01*
G01X723582Y-4007374D01*
G01X720741Y-3985998D01*
G01X714292Y-3965421D01*
G01X846598Y-3833114D01*
G01X1529305Y-3833114D01*
G01X1705595Y-4009405D01*
G01X1715643Y-4017114D01*
G01X1727344Y-4021961D01*
G01X1739900Y-4023614D01*
G01X2088105Y-4023614D01*
G01X2186686Y-4122195D01*
G01X2186686Y-4314240D01*
G01X2169891Y-4322000D01*
G01X2154703Y-4332567D01*
G01X2141589Y-4345618D01*
G01X2130948Y-4360753D01*
G01X2123107Y-4377511D01*
G01X2118304Y-4395378D01*
G01X2116686Y-4413809D01*
G01X2116686Y-4448810D01*
G01X2118557Y-4468617D01*
G01X2124102Y-4487724D01*
G01X2133125Y-4505456D01*
G01X2145309Y-4521185D01*
G01X2160221Y-4534355D01*
G01X2177335Y-4544501D01*
G01X2196046Y-4551264D01*
G01X2215692Y-4554405D01*
G01X2235578Y-4553813D01*
G01X2151605Y-4637786D01*
G01X1458900Y-4637786D01*
G01X1446343Y-4639439D01*
G01X1434643Y-4644286D01*
G01X1424595Y-4651995D01*
G01X1122072Y-4954518D01*
G01X1101495Y-4948069D01*
G01X1080119Y-4945228D01*
G01X1058571Y-4946079D01*
G01X1037486Y-4950597D01*
G01X1017482Y-4958650D01*
G01X999146Y-4970000D01*
G01X983019Y-4984315D01*
G01X969572Y-5001174D01*
G01X959202Y-5020081D01*
G01X952214Y-5040481D01*
G01X948811Y-5061775D01*
G01X949095Y-5083338D01*
G01X953057Y-5104535D01*
G01X960580Y-5124744D01*
G01X971444Y-5143372D01*
G01X985329Y-5159871D01*
G01X1001828Y-5173756D01*
G01X1020456Y-5184620D01*
G01X1040665Y-5192143D01*
G01X1061862Y-5196105D01*
G01X1083425Y-5196389D01*
G01X1104719Y-5192986D01*
G01X1125119Y-5185997D01*
G01X1144026Y-5175627D01*
G01X1160885Y-5162181D01*
G01X1175199Y-5146053D01*
G01X1186550Y-5127718D01*
G01X1194602Y-5107714D01*
G01X1199121Y-5086628D01*
G01X1199742Y-5070907D01*
G01X1289093Y-5070907D01*
G01X1291005Y-5092754D01*
G01X1296681Y-5113938D01*
G01X1305949Y-5133814D01*
G01X1318528Y-5151778D01*
G01X1334035Y-5167286D01*
G01X1352000Y-5179865D01*
G01X1371876Y-5189133D01*
G01X1393060Y-5194809D01*
G01X1414907Y-5196721D01*
G01X1436754Y-5194809D01*
G01X1457938Y-5189133D01*
G01X1477814Y-5179865D01*
G01X1495779Y-5167286D01*
G01X1511286Y-5151778D01*
G01X1523865Y-5133814D01*
G01X1533133Y-5113938D01*
G01X1538809Y-5092754D01*
G01X1540721Y-5070907D01*
G01X1540721Y-5070907D01*
G01X1538809Y-5049059D01*
G01X1533133Y-5027876D01*
G01X1523865Y-5008000D01*
G01X1511286Y-4990035D01*
G01X1495779Y-4974528D01*
G01X1477814Y-4961949D01*
G01X1457938Y-4952680D01*
G01X1436754Y-4947004D01*
G01X1414907Y-4945093D01*
G01X1393060Y-4947004D01*
G01X1371876Y-4952680D01*
G01X1352000Y-4961949D01*
G01X1334035Y-4974528D01*
G01X1318528Y-4990035D01*
G01X1305949Y-5008000D01*
G01X1296681Y-5027876D01*
G01X1291005Y-5049059D01*
G01X1289093Y-5070907D01*
G01X1199742Y-5070907D01*
G01X1199972Y-5065081D01*
G01X1197131Y-5043705D01*
G01X1190681Y-5023128D01*
G01X1478995Y-4734814D01*
G01X2171700Y-4734814D01*
G01X2184256Y-4733161D01*
G01X2195957Y-4728314D01*
G01X2206005Y-4720605D01*
G01X2396505Y-4530105D01*
G01X2401830Y-4523783D01*
G01X2414175Y-4534321D01*
G01X2427986Y-4542847D01*
G01X2427986Y-4564605D01*
G01X2354805Y-4637786D01*
G01X2324100Y-4637786D01*
G01X2311544Y-4639439D01*
G01X2299843Y-4644286D01*
G01X2289795Y-4651995D01*
G01X2175495Y-4766295D01*
G01X2167786Y-4776343D01*
G01X2162939Y-4788044D01*
G01X2161286Y-4800600D01*
G01X2161286Y-4905905D01*
G01X2112672Y-4954518D01*
G01X2092095Y-4948069D01*
G01X2070719Y-4945228D01*
G01X2049171Y-4946079D01*
G01X2028086Y-4950597D01*
G01X2008082Y-4958650D01*
G01X1989746Y-4970000D01*
G01X1973619Y-4984315D01*
G01X1960172Y-5001174D01*
G01X1949802Y-5020081D01*
G01X1942814Y-5040481D01*
G01X1939411Y-5061775D01*
G01X1939695Y-5083338D01*
G01X1943657Y-5104535D01*
G01X1951180Y-5124744D01*
G01X1962044Y-5143372D01*
G01X1975929Y-5159871D01*
G01X1992428Y-5173756D01*
G01X2011056Y-5184620D01*
G01X2031265Y-5192143D01*
G01X2052462Y-5196105D01*
G01X2074025Y-5196389D01*
G01X2095319Y-5192986D01*
G01X2115719Y-5185997D01*
G01X2134626Y-5175627D01*
G01X2151485Y-5162181D01*
G01X2165799Y-5146053D01*
G01X2177150Y-5127718D01*
G01X2185202Y-5107714D01*
G01X2189721Y-5086628D01*
G01X2190342Y-5070907D01*
G01X2457493Y-5070907D01*
G01X2459405Y-5092754D01*
G01X2465081Y-5113938D01*
G01X2474349Y-5133814D01*
G01X2486928Y-5151778D01*
G01X2502435Y-5167286D01*
G01X2520400Y-5179865D01*
G01X2540276Y-5189133D01*
G01X2561460Y-5194809D01*
G01X2583307Y-5196721D01*
G01X2605154Y-5194809D01*
G01X2626338Y-5189133D01*
G01X2646214Y-5179865D01*
G01X2664179Y-5167286D01*
G01X2679686Y-5151778D01*
G01X2692265Y-5133814D01*
G01X2701533Y-5113938D01*
G01X2707209Y-5092754D01*
G01X2709121Y-5070907D01*
G01X2709121Y-5070907D01*
G01X2707209Y-5049059D01*
G01X2701533Y-5027876D01*
G01X2692265Y-5008000D01*
G01X2679686Y-4990035D01*
G01X2664179Y-4974528D01*
G01X2646214Y-4961949D01*
G01X2626338Y-4952680D01*
G01X2605154Y-4947004D01*
G01X2583307Y-4945093D01*
G01X2561460Y-4947004D01*
G01X2540276Y-4952680D01*
G01X2520400Y-4961949D01*
G01X2502435Y-4974528D01*
G01X2486928Y-4990035D01*
G01X2474349Y-5008000D01*
G01X2465081Y-5027876D01*
G01X2459405Y-5049059D01*
G01X2457493Y-5070907D01*
G01X2190342Y-5070907D01*
G01X2190572Y-5065081D01*
G01X2187731Y-5043705D01*
G01X2181281Y-5023128D01*
G01X2244105Y-4960304D01*
G01X2251814Y-4950257D01*
G01X2256661Y-4938556D01*
G01X2258314Y-4926000D01*
G01X2258314Y-4820695D01*
G01X2344195Y-4734814D01*
G01X2374900Y-4734814D01*
G01X2387456Y-4733161D01*
G01X2399157Y-4728314D01*
G01X2409205Y-4720605D01*
G01X2510805Y-4619005D01*
G01X2518514Y-4608957D01*
G01X2523361Y-4597256D01*
G01X2525014Y-4584700D01*
G01X2525014Y-4542847D01*
G01X2539730Y-4533655D01*
G01X2552745Y-4522181D01*
G01X2563710Y-4508734D01*
G01X2572331Y-4493677D01*
G01X2576527Y-4500884D01*
G01X2581895Y-4507266D01*
G01X2593086Y-4518457D01*
G01X2593086Y-4775200D01*
G01X2594739Y-4787756D01*
G01X2599586Y-4799457D01*
G01X2607295Y-4809505D01*
G01X2683495Y-4885705D01*
G01X2693543Y-4893414D01*
G01X2705244Y-4898261D01*
G01X2717800Y-4899914D01*
G01X2993691Y-4899914D01*
G01X3116905Y-5023128D01*
G01X3110455Y-5043705D01*
G01X3107614Y-5065081D01*
G01X3108465Y-5086628D01*
G01X3112984Y-5107714D01*
G01X3121036Y-5127718D01*
G01X3132387Y-5146053D01*
G01X3146701Y-5162181D01*
G01X3163560Y-5175627D01*
G01X3182467Y-5185997D01*
G01X3202867Y-5192986D01*
G01X3224161Y-5196389D01*
G01X3245724Y-5196105D01*
G01X3266921Y-5192143D01*
G01X3287130Y-5184620D01*
G01X3305758Y-5173756D01*
G01X3322257Y-5159871D01*
G01X3336142Y-5143372D01*
G01X3347006Y-5124744D01*
G01X3354529Y-5104535D01*
G01X3358491Y-5083338D01*
G01X3358775Y-5061775D01*
G01X3355372Y-5040481D01*
G01X3348384Y-5020081D01*
G01X3338014Y-5001174D01*
G01X3324567Y-4984315D01*
G01X3308440Y-4970000D01*
G01X3290104Y-4958650D01*
G01X3270100Y-4950597D01*
G01X3249015Y-4946079D01*
G01X3227467Y-4945228D01*
G01X3206091Y-4948069D01*
G01X3185514Y-4954518D01*
G01X3048091Y-4817095D01*
G01X3038043Y-4809386D01*
G01X3026343Y-4804539D01*
G01X3013786Y-4802886D01*
G01X2737895Y-4802886D01*
G01X2690114Y-4755105D01*
G01X2690114Y-4546614D01*
G01X2708111Y-4552228D01*
G01X2726818Y-4554560D01*
G01X2745642Y-4553535D01*
G01X2763986Y-4549186D01*
G01X2781267Y-4541650D01*
G01X2796936Y-4531168D01*
G01X2810496Y-4518071D01*
G01X2821518Y-4502776D01*
G01X2829650Y-4485768D01*
G01X2834634Y-4467587D01*
G01X2835622Y-4456547D01*
G01X3194738Y-4456547D01*
G01X3194738Y-4476074D01*
G01X3198326Y-4495268D01*
G01X3205379Y-4513476D01*
G01X3215659Y-4530078D01*
G01X3228814Y-4544508D01*
G01X3244396Y-4556275D01*
G01X3261876Y-4564979D01*
G01X3280657Y-4570323D01*
G01X3300100Y-4572124D01*
G01X3380100Y-4572124D01*
G01X3399543Y-4570323D01*
G01X3418324Y-4564979D01*
G01X3435804Y-4556275D01*
G01X3451386Y-4544508D01*
G01X3464541Y-4530078D01*
G01X3474821Y-4513476D01*
G01X3481874Y-4495268D01*
G01X3485462Y-4476074D01*
G01X3485462Y-4456547D01*
G01X3481874Y-4437353D01*
G01X3474821Y-4419145D01*
G01X3464541Y-4402544D01*
G01X3451386Y-4388113D01*
G01X3435804Y-4376346D01*
G01X3418324Y-4367642D01*
G01X3399543Y-4362298D01*
G01X3380100Y-4360497D01*
G01X3365062Y-4360497D01*
G01X3385074Y-4353888D01*
G01X3403494Y-4343649D01*
G01X3419669Y-4330140D01*
G01X3433028Y-4313841D01*
G01X3443098Y-4295328D01*
G01X3449522Y-4275257D01*
G01X3452073Y-4254337D01*
G01X3450660Y-4233310D01*
G01X3445334Y-4212920D01*
G01X3436282Y-4193888D01*
G01X3423827Y-4176889D01*
G01X3408407Y-4162523D01*
G01X3390570Y-4151300D01*
G01X3408005Y-4140384D01*
G01X3423150Y-4126465D01*
G01X3435495Y-4110010D01*
G01X3444623Y-4091576D01*
G01X3450225Y-4071783D01*
G01X3452114Y-4051300D01*
G01X3450225Y-4030817D01*
G01X3444623Y-4011024D01*
G01X3435495Y-3992590D01*
G01X3423150Y-3976135D01*
G01X3408005Y-3962216D01*
G01X3390570Y-3951300D01*
G01X3408407Y-3940077D01*
G01X3423827Y-3925711D01*
G01X3436282Y-3908712D01*
G01X3445334Y-3889680D01*
G01X3450660Y-3869290D01*
G01X3452073Y-3848263D01*
G01X3449522Y-3827343D01*
G01X3443098Y-3807272D01*
G01X3433028Y-3788759D01*
G01X3419669Y-3772460D01*
G01X3403494Y-3758951D01*
G01X3385074Y-3748712D01*
G01X3365062Y-3742103D01*
G01X3380100Y-3742103D01*
G01X3399543Y-3740302D01*
G01X3418324Y-3734958D01*
G01X3435804Y-3726254D01*
G01X3451386Y-3714487D01*
G01X3464541Y-3700056D01*
G01X3474821Y-3683455D01*
G01X3481874Y-3665247D01*
G01X3485462Y-3646053D01*
G01X3485462Y-3626526D01*
G01X3481874Y-3607332D01*
G01X3474821Y-3589124D01*
G01X3464541Y-3572522D01*
G01X3451386Y-3558092D01*
G01X3435804Y-3546325D01*
G01X3418324Y-3537621D01*
G01X3399543Y-3532277D01*
G01X3380100Y-3530476D01*
G01X3300100Y-3530476D01*
G01X3280657Y-3532277D01*
G01X3261876Y-3537621D01*
G01X3244396Y-3546325D01*
G01X3228814Y-3558092D01*
G01X3215659Y-3572522D01*
G01X3205379Y-3589124D01*
G01X3198326Y-3607332D01*
G01X3194738Y-3626526D01*
G01X3194738Y-3646053D01*
G01X3198326Y-3665247D01*
G01X3205379Y-3683455D01*
G01X3215659Y-3700056D01*
G01X3228814Y-3714487D01*
G01X3244396Y-3726254D01*
G01X3261876Y-3734958D01*
G01X3280657Y-3740302D01*
G01X3300100Y-3742103D01*
G01X3315138Y-3742103D01*
G01X3295126Y-3748712D01*
G01X3276706Y-3758951D01*
G01X3260531Y-3772460D01*
G01X3247172Y-3788759D01*
G01X3237102Y-3807272D01*
G01X3230678Y-3827343D01*
G01X3228127Y-3848263D01*
G01X3229540Y-3869290D01*
G01X3234866Y-3889680D01*
G01X3243918Y-3908712D01*
G01X3256373Y-3925711D01*
G01X3271793Y-3940077D01*
G01X3289630Y-3951300D01*
G01X3272195Y-3962216D01*
G01X3257050Y-3976135D01*
G01X3244705Y-3992590D01*
G01X3235577Y-4011024D01*
G01X3229975Y-4030817D01*
G01X3228086Y-4051300D01*
G01X3229975Y-4071783D01*
G01X3235577Y-4091576D01*
G01X3244705Y-4110010D01*
G01X3257050Y-4126465D01*
G01X3272195Y-4140384D01*
G01X3289630Y-4151300D01*
G01X3271793Y-4162523D01*
G01X3256373Y-4176889D01*
G01X3243918Y-4193888D01*
G01X3234866Y-4212920D01*
G01X3229540Y-4233310D01*
G01X3228127Y-4254337D01*
G01X3230678Y-4275257D01*
G01X3237102Y-4295328D01*
G01X3247172Y-4313841D01*
G01X3260531Y-4330140D01*
G01X3276706Y-4343649D01*
G01X3295126Y-4353888D01*
G01X3315138Y-4360497D01*
G01X3300100Y-4360497D01*
G01X3300100Y-4360497D01*
G01X3280657Y-4362298D01*
G01X3261876Y-4367642D01*
G01X3244396Y-4376346D01*
G01X3228814Y-4388113D01*
G01X3215659Y-4402544D01*
G01X3205379Y-4419145D01*
G01X3198326Y-4437353D01*
G01X3194738Y-4456547D01*
G01X2835622Y-4456547D01*
G01X2836314Y-4448810D01*
G01X2836314Y-4413809D01*
G01X2834634Y-4395032D01*
G01X2829650Y-4376850D01*
G01X2821518Y-4359842D01*
G01X2810496Y-4344547D01*
G01X2796936Y-4331451D01*
G01X2781267Y-4320969D01*
G01X2763986Y-4313433D01*
G01X2745642Y-4309084D01*
G01X2726818Y-4308059D01*
G01X2708111Y-4310391D01*
G01X2690114Y-4316005D01*
G01X2690114Y-4147595D01*
G01X2744921Y-4092788D01*
G01X2754539Y-4090124D01*
G01X2763409Y-4085548D01*
G01X2771155Y-4079255D01*
G01X2777505Y-4072905D01*
G01X2785214Y-4062857D01*
G01X2790061Y-4051156D01*
G01X2791714Y-4038600D01*
G01X2791714Y-3775101D01*
G01X2806970Y-3761928D01*
G01X2819451Y-3746100D01*
G01X2828704Y-3728193D01*
G01X2834394Y-3708856D01*
G01X2836314Y-3688791D01*
G01X2836314Y-3653790D01*
G01X2834748Y-3635652D01*
G01X3615705Y-2854695D01*
G01X3623414Y-2844648D01*
G01X3628261Y-2832947D01*
G01X3629914Y-2820391D01*
G01X3629914Y-1231900D01*
G01X3628261Y-1219344D01*
G01X3623414Y-1207643D01*
G01X3615705Y-1197595D01*
G01X3528843Y-1110733D01*
G01X3534933Y-1089651D01*
G01X3537110Y-1067814D01*
G01X3535300Y-1045944D01*
G01X3529564Y-1024762D01*
G01X3520092Y-1004967D01*
G01X3507195Y-987213D01*
G01X3491299Y-972084D01*
G01X3472928Y-960080D01*
G01X3452689Y-951597D01*
G01X3431250Y-946915D01*
G01X3409317Y-946188D01*
G01X3387615Y-949441D01*
G01X3366859Y-956566D01*
G01X3347734Y-967328D01*
G01X3330872Y-981372D01*
G01X3316828Y-998234D01*
G01X3306066Y-1017359D01*
G01X3298941Y-1038115D01*
G01X3295688Y-1059817D01*
G01X3296415Y-1081750D01*
G01X3301097Y-1103189D01*
G01X3309580Y-1123428D01*
G01X3321584Y-1141799D01*
G01X3336713Y-1157695D01*
G01X3354467Y-1170592D01*
G01X3374262Y-1180064D01*
G01X3395444Y-1185800D01*
G01X3417314Y-1187610D01*
G01X3439151Y-1185433D01*
G01X3460233Y-1179343D01*
G01X3532886Y-1251995D01*
G01X3532886Y-1289119D01*
G01X3525155Y-1268393D01*
G01X3513775Y-1249424D01*
G01X3499127Y-1232847D01*
G01X3481702Y-1219220D01*
G01X3462085Y-1208998D01*
G01X3440932Y-1202524D01*
G01X3418954Y-1200015D01*
G01X3396887Y-1201556D01*
G01X3375470Y-1207095D01*
G01X3355423Y-1216445D01*
G01X3337416Y-1229294D01*
G01X3322054Y-1245211D01*
G01X3309852Y-1263662D01*
G01X3301218Y-1284028D01*
G01X3296443Y-1305628D01*
G01X3295685Y-1327736D01*
G01X3298972Y-1349611D01*
G01X3306192Y-1370521D01*
G01X3317103Y-1389763D01*
G01X3331340Y-1406694D01*
G01X3348425Y-1420745D01*
G01X3367786Y-1431445D01*
G01X3367786Y-2711395D01*
G01X2521268Y-3557913D01*
G01X2521268Y-3557913D01*
G01X2503123Y-3551380D01*
G01X2484093Y-3548249D01*
G01X2464811Y-3548624D01*
G01X2445918Y-3552492D01*
G01X2428040Y-3559725D01*
G01X2411772Y-3570083D01*
G01X2397654Y-3583222D01*
G01X2386155Y-3598705D01*
G01X2377658Y-3616017D01*
G01X2372444Y-3634585D01*
G01X2370686Y-3653790D01*
G01X2370686Y-3688791D01*
G01X2372442Y-3707987D01*
G01X2377651Y-3726545D01*
G01X2386140Y-3743851D01*
G01X2397627Y-3759329D01*
G01X2411732Y-3772467D01*
G01X2427986Y-3782828D01*
G01X2427986Y-3916905D01*
G01X2327895Y-4016995D01*
G01X2320186Y-4027043D01*
G01X2315339Y-4038744D01*
G01X2313686Y-4051300D01*
G01X2313686Y-4360127D01*
G01X2305263Y-4347878D01*
G01X2295206Y-4336930D01*
G01X2283714Y-4327499D01*
G01X2283714Y-4102100D01*
G01X2282061Y-4089544D01*
G01X2277214Y-4077843D01*
G01X2269505Y-4067795D01*
G01X2142505Y-3940795D01*
G01X2132457Y-3933086D01*
G01X2120756Y-3928239D01*
G01X2108200Y-3926586D01*
G01X1759995Y-3926586D01*
G01X1583705Y-3750295D01*
G01X1573657Y-3742586D01*
G01X1561956Y-3737739D01*
G01X1549400Y-3736086D01*
G01X826503Y-3736086D01*
G01X813947Y-3737739D01*
G01X802246Y-3742586D01*
G01X792199Y-3750295D01*
G01X645683Y-3896812D01*
G01X625105Y-3890362D01*
G01X603729Y-3887521D01*
G01X582182Y-3888372D01*
G01X561096Y-3892891D01*
G01X541092Y-3900943D01*
G01X522757Y-3912294D01*
G01X506629Y-3926608D01*
G01X493183Y-3943467D01*
G01X482813Y-3962374D01*
G01X475824Y-3982774D01*
G01X472421Y-4004068D01*
G01X35814Y-4004068D01*
G01X35814Y-508000D01*
G01X1258486Y-508000D01*
G01X1260398Y-529847D01*
G01X1266074Y-551031D01*
G01X1275342Y-570907D01*
G01X1287921Y-588872D01*
G01X1303428Y-604379D01*
G01X1321393Y-616958D01*
G01X1341269Y-626226D01*
G01X1362453Y-631902D01*
G01X1384300Y-633814D01*
G01X1406147Y-631902D01*
G01X1427331Y-626226D01*
G01X1447207Y-616958D01*
G01X1465172Y-604379D01*
G01X1480679Y-588872D01*
G01X1493258Y-570907D01*
G01X1502526Y-551031D01*
G01X1508202Y-529847D01*
G01X1509214Y-518286D01*
G01X1512907Y-518286D01*
G01X1516574Y-539811D01*
G01X1523907Y-560378D01*
G01X1534686Y-579367D01*
G01X1548585Y-596206D01*
G01X1565186Y-610389D01*
G01X1583990Y-621488D01*
G01X1604429Y-629169D01*
G01X1625889Y-633200D01*
G01X1647722Y-633461D01*
G01X1669272Y-629942D01*
G01X1689888Y-622751D01*
G01X1708951Y-612103D01*
G01X1725886Y-598321D01*
G01X1725886Y-3514300D01*
G01X1727539Y-3526856D01*
G01X1732386Y-3538557D01*
G01X1740095Y-3548605D01*
G01X1862686Y-3671195D01*
G01X1862686Y-3671195D01*
G01X1862686Y-3688791D01*
G01X1864488Y-3708234D01*
G01X1869832Y-3727016D01*
G01X1878535Y-3744495D01*
G01X1890303Y-3760078D01*
G01X1904733Y-3773232D01*
G01X1921335Y-3783512D01*
G01X1939543Y-3790566D01*
G01X1958737Y-3794154D01*
G01X1978263Y-3794154D01*
G01X1997457Y-3790566D01*
G01X2015665Y-3783512D01*
G01X2032267Y-3773232D01*
G01X2046697Y-3760078D01*
G01X2058465Y-3744495D01*
G01X2067168Y-3727016D01*
G01X2072512Y-3708234D01*
G01X2074314Y-3688791D01*
G01X2074314Y-3653790D01*
G01X2072439Y-3633958D01*
G01X2066880Y-3614828D01*
G01X2057834Y-3597080D01*
G01X2045621Y-3581341D01*
G01X2030676Y-3568170D01*
G01X2013527Y-3558034D01*
G01X1994781Y-3551292D01*
G01X1975105Y-3548182D01*
G01X1955194Y-3548816D01*
G01X1935755Y-3553170D01*
G01X1917476Y-3561091D01*
G01X1901006Y-3572297D01*
G01X1822914Y-3494205D01*
G01X1822914Y-612951D01*
G01X1833088Y-619009D01*
G01X1843786Y-624084D01*
G01X1843786Y-3341091D01*
G01X1845439Y-3353647D01*
G01X1850286Y-3365348D01*
G01X1857995Y-3375395D01*
G01X2118252Y-3635652D01*
G01X2116686Y-3653790D01*
G01X2116686Y-3688791D01*
G01X2118488Y-3708234D01*
G01X2123832Y-3727016D01*
G01X2132535Y-3744495D01*
G01X2144303Y-3760078D01*
G01X2158733Y-3773232D01*
G01X2175335Y-3783512D01*
G01X2193543Y-3790566D01*
G01X2212737Y-3794154D01*
G01X2232263Y-3794154D01*
G01X2251457Y-3790566D01*
G01X2269665Y-3783512D01*
G01X2286267Y-3773232D01*
G01X2300697Y-3760078D01*
G01X2312465Y-3744495D01*
G01X2321168Y-3727016D01*
G01X2326512Y-3708234D01*
G01X2328314Y-3688791D01*
G01X2328314Y-3653790D01*
G01X2326556Y-3634585D01*
G01X2321342Y-3616017D01*
G01X2312845Y-3598705D01*
G01X2301346Y-3583222D01*
G01X2287228Y-3570083D01*
G01X2270960Y-3559725D01*
G01X2253082Y-3552492D01*
G01X2234189Y-3548624D01*
G01X2214907Y-3548249D01*
G01X2195877Y-3551380D01*
G01X2177732Y-3557913D01*
G01X1940814Y-3320995D01*
G01X1940814Y-624084D01*
G01X1958932Y-614720D01*
G01X1975300Y-602552D01*
G01X1989486Y-587900D01*
G01X2001119Y-571147D01*
G01X2009892Y-552736D01*
G01X2015575Y-533148D01*
G01X2024731Y-542305D01*
G01X2025457Y-543015D01*
G01X2032912Y-562518D01*
G01X2043490Y-580520D01*
G01X2056899Y-596524D01*
G01X2072770Y-610091D01*
G01X2090667Y-620845D01*
G01X2110095Y-628492D01*
G01X2130521Y-632820D01*
G01X2151381Y-633711D01*
G01X2172102Y-631140D01*
G01X2192111Y-625177D01*
G01X2210859Y-615987D01*
G01X2227829Y-603823D01*
G01X2242554Y-589020D01*
G01X2254628Y-571986D01*
G01X2263718Y-553189D01*
G01X2269575Y-533148D01*
G01X2278731Y-542305D01*
G01X2288779Y-550014D01*
G01X2300479Y-554861D01*
G01X2313036Y-556514D01*
G01X3091405Y-556514D01*
G01X3303757Y-768867D01*
G01X3297667Y-789949D01*
G01X3295490Y-811786D01*
G01X3297300Y-833656D01*
G01X3303036Y-854838D01*
G01X3312508Y-874633D01*
G01X3325405Y-892387D01*
G01X3341301Y-907516D01*
G01X3359672Y-919520D01*
G01X3379911Y-928003D01*
G01X3401350Y-932685D01*
G01X3423283Y-933412D01*
G01X3444985Y-930159D01*
G01X3465741Y-923034D01*
G01X3484866Y-912272D01*
G01X3501728Y-898228D01*
G01X3515772Y-881366D01*
G01X3526534Y-862241D01*
G01X3533659Y-841485D01*
G01X3536912Y-819783D01*
G01X3536185Y-797850D01*
G01X3531503Y-776411D01*
G01X3523020Y-756172D01*
G01X3511016Y-737801D01*
G01X3495887Y-721905D01*
G01X3478133Y-709008D01*
G01X3458338Y-699536D01*
G01X3437156Y-693800D01*
G01X3415286Y-691990D01*
G01X3393449Y-694167D01*
G01X3372367Y-700257D01*
G01X3351723Y-679614D01*
G01X3501300Y-679614D01*
G01X3512367Y-677861D01*
G01X3522351Y-672774D01*
G01X3530274Y-664851D01*
G01X3535361Y-654867D01*
G01X3537114Y-643800D01*
G01X3537114Y-473800D01*
G01X3535361Y-462733D01*
G01X3530274Y-452749D01*
G01X3522351Y-444826D01*
G01X3512367Y-439739D01*
G01X3501300Y-437986D01*
G01X3331300Y-437986D01*
G01X3320233Y-439739D01*
G01X3310249Y-444826D01*
G01X3302326Y-452749D01*
G01X3297239Y-462733D01*
G01X3295486Y-473800D01*
G01X3295486Y-623377D01*
G01X3145805Y-473695D01*
G01X3135757Y-465986D01*
G01X3124056Y-461139D01*
G01X3111500Y-459486D01*
G01X2333131Y-459486D01*
G01X2193840Y-320196D01*
G01X2183793Y-312486D01*
G01X2172092Y-307639D01*
G01X2159536Y-305986D01*
G01X1828718Y-305986D01*
G01X1816162Y-307639D01*
G01X1804461Y-312486D01*
G01X1794414Y-320196D01*
G01X1709996Y-404613D01*
G01X1691041Y-393774D01*
G01X1670498Y-386376D01*
G01X1648985Y-382641D01*
G01X1627150Y-382681D01*
G01X1605651Y-386496D01*
G01X1585136Y-393971D01*
G01X1566221Y-404880D01*
G01X1549478Y-418895D01*
G01X1535410Y-435593D01*
G01X1524441Y-454473D01*
G01X1516901Y-474965D01*
G01X1513017Y-496452D01*
G01X1512907Y-518286D01*
G01X1509214Y-518286D01*
G01X1510114Y-508000D01*
G01X1508202Y-486153D01*
G01X1502526Y-464969D01*
G01X1493258Y-445093D01*
G01X1480679Y-427128D01*
G01X1465172Y-411621D01*
G01X1447207Y-399042D01*
G01X1427331Y-389774D01*
G01X1406147Y-384098D01*
G01X1384300Y-382186D01*
G01X1362453Y-384098D01*
G01X1341269Y-389774D01*
G01X1321393Y-399042D01*
G01X1303428Y-411621D01*
G01X1287921Y-427128D01*
G01X1275342Y-445093D01*
G01X1266074Y-464969D01*
G01X1260398Y-486153D01*
G01X1258486Y-508000D01*
G01X1258486Y-508000D01*
G01X35814Y-508000D01*
G01X35814Y-10414D01*
G01X3634486Y-10414D01*
G37*
G54D10*
G01X3634486Y-10414D02*
G01X3634486Y-5907786D01*
G01X35814Y-5907786D01*
G01X35814Y-10414D01*
G01X3634486Y-10414D01*
G01X550121Y-5070907D02*
G03X298493Y-5070907I-125814J0D01*
G03X550121Y-5070907I125814J0D01*
G01X550121Y-5520893D02*
G03X298493Y-5520893I-125814J0D01*
G03X550121Y-5520893I125814J0D01*
G01X2521268Y-3557913D02*
G03X2370686Y-3653790I-44768J-95877D01*
G01X2370686Y-3688791D01*
G03X2427986Y-3782828I105814J0D01*
G01X2427986Y-3916905D01*
G01X2327895Y-4016995D01*
G03X2313686Y-4051300I34305J-34305D01*
G01X2313686Y-4360127D01*
G03X2283714Y-4327499I-91186J-53681D01*
G01X2283714Y-4102100D01*
G03X2269505Y-4067795I-48514J0D01*
G01X2142505Y-3940795D01*
G03X2108200Y-3926586I-34305J-34305D01*
G01X1759995Y-3926586D01*
G01X1583705Y-3750295D01*
G03X1549400Y-3736086I-34305J-34305D01*
G01X826503Y-3736086D01*
G03X792199Y-3750295I0J-48514D01*
G01X645683Y-3896812D01*
G03X508939Y-4102164I-47779J-116388D01*
G03X714292Y-3965421I88964J88964D01*
G01X846598Y-3833114D01*
G01X1529305Y-3833114D01*
G01X1705595Y-4009405D01*
G03X1739900Y-4023614I34305J34305D01*
G01X2088105Y-4023614D01*
G01X2186686Y-4122195D01*
G01X2186686Y-4314240D01*
G03X2116686Y-4413809I35814J-99569D01*
G01X2116686Y-4448810D01*
G03X2235578Y-4553813I105814J0D01*
G01X2151605Y-4637786D01*
G01X1458900Y-4637786D01*
G03X1424595Y-4651995I0J-48514D01*
G01X1122072Y-4954518D01*
G03X985329Y-5159871I-47779J-116388D01*
G03X1190681Y-5023128I88964J88964D01*
G01X1478995Y-4734814D01*
G01X2171700Y-4734814D01*
G03X2206005Y-4720605I0J48514D01*
G01X2396505Y-4530105D01*
G03X2401830Y-4523783I-34305J34305D01*
G03X2427986Y-4542847I74670J74973D01*
G01X2427986Y-4564605D01*
G01X2354805Y-4637786D01*
G01X2324100Y-4637786D01*
G03X2289795Y-4651995I0J-48514D01*
G01X2175495Y-4766295D01*
G03X2161286Y-4800600I34305J-34305D01*
G01X2161286Y-4905905D01*
G01X2112672Y-4954518D01*
G03X1975929Y-5159871I-47779J-116388D01*
G03X2181281Y-5023128I88964J88964D01*
G01X2244105Y-4960304D01*
G03X2258314Y-4926000I-34305J34305D01*
G01X2258314Y-4820695D01*
G01X2344195Y-4734814D01*
G01X2374900Y-4734814D01*
G03X2409205Y-4720605I0J48514D01*
G01X2510805Y-4619005D01*
G03X2525014Y-4584700I-34305J34305D01*
G01X2525014Y-4542847D01*
G03X2572331Y-4493677I-48514J94037D01*
G03X2581895Y-4507266I43869J20715D01*
G01X2593086Y-4518457D01*
G01X2593086Y-4775200D01*
G03X2607295Y-4809505I48514J0D01*
G01X2683495Y-4885705D01*
G03X2717800Y-4899914I34305J34305D01*
G01X2993691Y-4899914D01*
G01X3116905Y-5023128D01*
G03X3322257Y-5159871I116388J-47779D01*
G03X3185514Y-4954518I-88964J88964D01*
G01X3048091Y-4817095D01*
G03X3013786Y-4802886I-34305J-34305D01*
G01X2737895Y-4802886D01*
G01X2690114Y-4755105D01*
G01X2690114Y-4546614D01*
G03X2836314Y-4448810I40386J97804D01*
G01X2836314Y-4413809D01*
G03X2690114Y-4316005I-105814J0D01*
G01X2690114Y-4147595D01*
G01X2744921Y-4092788D01*
G03X2771155Y-4079255I-8071J47838D01*
G01X2777505Y-4072905D01*
G03X2791714Y-4038600I-34305J34305D01*
G01X2791714Y-3775101D01*
G03X2836314Y-3688791I-61214J86310D01*
G01X2836314Y-3653790D01*
G03X2834748Y-3635652I-105814J0D01*
G01X3615705Y-2854695D01*
G03X3629914Y-2820391I-34305J34305D01*
G01X3629914Y-1231900D01*
G03X3615705Y-1197595I-48514J0D01*
G01X3528843Y-1110733D01*
G03X3330872Y-981372I-112543J43933D01*
G03X3460233Y-1179343I85428J-85428D01*
G01X3532886Y-1251995D01*
G01X3532886Y-1289119D01*
G03X3337416Y-1229294I-116586J-31681D01*
G03X3367786Y-1431445I78884J-91506D01*
G01X3367786Y-2711395D01*
G01X2521268Y-3557913D01*
G01X1200107Y-5520893D02*
G03X948479Y-5520893I-125814J0D01*
G03X1200107Y-5520893I125814J0D01*
G01X1862686Y-4413809D02*
G01X1862686Y-4448810D01*
G03X2074314Y-4448810I105814J0D01*
G01X2074314Y-4413809D01*
G03X1914764Y-4322655I-105814J0D01*
G01X1702652Y-4110543D01*
G03X1668347Y-4096333I-34305J-34305D01*
G01X1509639Y-4096333D01*
G01X1474285Y-4060979D01*
G03X1268933Y-3924236I-116388J47779D01*
G03X1405676Y-4129588I88964J-88964D01*
G01X1455239Y-4179152D01*
G03X1489544Y-4193361I34305J34305D01*
G01X1648252Y-4193361D01*
G01X1862848Y-4407957D01*
G03X1862686Y-4413809I105652J-5852D01*
G01X1258486Y-508000D02*
G03X1510114Y-508000I125814J0D01*
G03X1258486Y-508000I-125814J0D01*
G01X1540721Y-5520893D02*
G03X1289093Y-5520893I-125814J0D01*
G03X1540721Y-5520893I125814J0D01*
G01X1540721Y-5070907D02*
G03X1289093Y-5070907I-125814J0D01*
G03X1540721Y-5070907I125814J0D01*
G01X1862686Y-3671195D02*
G01X1862686Y-3688791D01*
G03X2074314Y-3688791I105814J0D01*
G01X2074314Y-3653790D01*
G03X1901006Y-3572297I-105814J0D01*
G01X1822914Y-3494205D01*
G01X1822914Y-612951D01*
G03X1843786Y-624084I69386J104951D01*
G01X1843786Y-3341091D01*
G03X1857995Y-3375395I48514J0D01*
G01X2118252Y-3635652D01*
G03X2116686Y-3653790I104248J-18138D01*
G01X2116686Y-3688791D01*
G03X2328314Y-3688791I105814J0D01*
G01X2328314Y-3653790D01*
G03X2177732Y-3557913I-105814J0D01*
G01X1940814Y-3320995D01*
G01X1940814Y-624084D01*
G03X2015575Y-533148I-48514J116084D01*
G01X2024731Y-542305D01*
G01X2025457Y-543015D01*
G03X2151381Y-633711I120843J35015D01*
G03X2269575Y-533148I-5081J125711D01*
G01X2278731Y-542305D01*
G03X2313036Y-556514I34305J34305D01*
G01X3091405Y-556514D01*
G01X3303757Y-768867D01*
G03X3501728Y-898228I112543J-43933D01*
G03X3372367Y-700257I-85428J85428D01*
G01X3351723Y-679614D01*
G01X3501300Y-679614D01*
G03X3537114Y-643800I0J35814D01*
G01X3537114Y-473800D01*
G03X3501300Y-437986I-35814J0D01*
G01X3331300Y-437986D01*
G03X3295486Y-473800I0J-35814D01*
G01X3295486Y-623377D01*
G01X3145805Y-473695D01*
G03X3111500Y-459486I-34305J-34305D01*
G01X2333131Y-459486D01*
G01X2193840Y-320196D01*
G03X2159536Y-305986I-34305J-34305D01*
G01X1828718Y-305986D01*
G03X1794414Y-320196I0J-48514D01*
G01X1709996Y-404613D01*
G03X1512907Y-518286I-71696J-103387D01*
G03X1725886Y-598321I125393J10286D01*
G01X1725886Y-3514300D01*
G03X1740095Y-3548605I48514J0D01*
G01X1862686Y-3671195D01*
G01X2190707Y-5520893D02*
G03X1939079Y-5520893I-125814J0D01*
G03X2190707Y-5520893I125814J0D01*
G01X2709121Y-5520893D02*
G03X2457493Y-5520893I-125814J0D01*
G03X2709121Y-5520893I125814J0D01*
G01X2709121Y-5070907D02*
G03X2457493Y-5070907I-125814J0D01*
G03X2709121Y-5070907I125814J0D01*
G01X3359107Y-5520893D02*
G03X3107479Y-5520893I-125814J0D01*
G03X3359107Y-5520893I125814J0D01*
G01X3300100Y-4360497D02*
G03X3300100Y-4572124I0J-105814D01*
G01X3380100Y-4572124D01*
G03X3380100Y-4360497I0J105814D01*
G01X3365062Y-4360497D01*
G03X3390570Y-4151300I-24962J109197D01*
G03X3390570Y-3951300I-50470J100000D01*
G03X3365062Y-3742103I-50470J100000D01*
G01X3380100Y-3742103D01*
G03X3380100Y-3530476I0J105814D01*
G01X3300100Y-3530476D01*
G03X3300100Y-3742103I0J-105814D01*
G01X3315138Y-3742103D01*
G03X3289630Y-3951300I24962J-109197D01*
G03X3289630Y-4151300I50470J-100000D01*
G03X3315138Y-4360497I50470J-100000D01*
G01X3300100Y-4360497D01*
G54D11*
G01X514053Y-5520893D02*
G01X539961Y-5520893D01*
G01X334561Y-5520893D02*
G01X308653Y-5520893D01*
G01X424307Y-5610639D02*
G01X424307Y-5636547D01*
G01X424307Y-5431147D02*
G01X424307Y-5405239D01*
G01X1294554Y-508000D02*
G01X1268646Y-508000D01*
G01X1474046Y-508000D02*
G01X1499954Y-508000D01*
G01X1384300Y-418254D02*
G01X1384300Y-392346D01*
G01X1384300Y-597746D02*
G01X1384300Y-623654D01*
G01X1504653Y-5520893D02*
G01X1530561Y-5520893D01*
G01X1325161Y-5520893D02*
G01X1299253Y-5520893D01*
G01X1414907Y-5610639D02*
G01X1414907Y-5636547D01*
G01X1414907Y-5431147D02*
G01X1414907Y-5405239D01*
G01X2673053Y-5520893D02*
G01X2698961Y-5520893D01*
G01X2493561Y-5520893D02*
G01X2467653Y-5520893D01*
G01X2583307Y-5610639D02*
G01X2583307Y-5636547D01*
G01X2583307Y-5431147D02*
G01X2583307Y-5405239D01*
G01X2800246Y-4431309D02*
G01X2826154Y-4431309D01*
G01X2730500Y-4344063D02*
G01X2730500Y-4318155D01*
G01X2730500Y-4518556D02*
G01X2730500Y-4544464D01*
G01X3416300Y-474054D02*
G01X3416300Y-448146D01*
G01X3416300Y-643546D02*
G01X3416300Y-669454D01*
G01X3501046Y-558800D02*
G01X3526954Y-558800D01*
G01X3331554Y-558800D02*
G01X3305646Y-558800D01*
G04 Copper End*

G04 Pad Start*
G54D12*
G01X1357897Y-4013200D03*
G01X597903Y-4013200D03*
G54D13*
G01X3416300Y-558800D03*
G54D14*
G01X3416300Y-812800D03*
G01X3416300Y-1066800D03*
G01X3416300Y-1320800D03*
G54D15*
G01X3340100Y-4251300D03*
G01X3340100Y-4051300D03*
G01X3340100Y-3851300D03*
G54D17*
G01X3340100Y-3636289D03*
G01X3340100Y-4466311D03*
G54D12*
G01X1074293Y-5520893D03*
G01X424307Y-5520893D03*
G01X1074293Y-5070907D03*
G01X424307Y-5070907D03*
G01X3233293Y-5520893D03*
G01X2583307Y-5520893D03*
G01X3233293Y-5070907D03*
G01X2583307Y-5070907D03*
G01X2064893Y-5520893D03*
G01X1414907Y-5520893D03*
G01X2064893Y-5070907D03*
G01X1414907Y-5070907D03*
G54D18*
G01X1968500Y-4431309D03*
G01X1968500Y-3671291D03*
G01X2222500Y-4431309D03*
G01X2222500Y-3671291D03*
G01X2476500Y-4431309D03*
G01X2476500Y-3671291D03*
G01X2730500Y-4431309D03*
G01X2730500Y-3671291D03*
G54D12*
G01X1384300Y-508000D03*
G01X1638300Y-508000D03*
G01X1892300Y-508000D03*
G01X2146300Y-508000D03*
G04 Pad End*

G04 Track Start*
G54D11*
G01X2064893Y-5070907D02*
G01X2209800Y-4926000D01*
G01X2209800Y-4800600D01*
G01X2324100Y-4686300D01*
G01X2374900Y-4686300D01*
G01X2476500Y-4584700D01*
G01X2476500Y-4431309D01*
G01X3233293Y-5070907D02*
G01X3013786Y-4851400D01*
G01X2717800Y-4851400D01*
G01X2641600Y-4775200D01*
G01X2743200Y-4038600D02*
G01X2743200Y-3683991D01*
G01X2730500Y-3671291D01*
G01X2641600Y-4127500D02*
G01X2730500Y-4038600D01*
G01X2736850Y-4044950D02*
G01X2743200Y-4038600D01*
G01X2641600Y-4775200D02*
G01X2641600Y-4498362D01*
G01X2641600Y-4364257D02*
G01X2641600Y-4127500D01*
G01X1357897Y-4013200D02*
G01X1489544Y-4144847D01*
G01X597903Y-4013200D02*
G01X826503Y-3784600D01*
G01X1549400Y-3784600D01*
G01X1739900Y-3975100D01*
G01X2108200Y-3975100D01*
G01X2235200Y-4102100D01*
G01X2235200Y-4418609D01*
G01X2222500Y-4431309D01*
G01X1489544Y-4144847D02*
G01X1668347Y-4144847D01*
G01X1954809Y-4431309D01*
G01X1968500Y-4431309D01*
G01X1074293Y-5070907D02*
G01X1458900Y-4686300D01*
G01X2171700Y-4686300D01*
G01X2362200Y-4495800D01*
G01X2362200Y-4051300D01*
G01X2476500Y-3937000D01*
G01X2476500Y-3671291D01*
G01X1892300Y-508000D02*
G01X1892300Y-3341091D01*
G01X2222500Y-3671291D01*
G01X2146300Y-508000D02*
G01X2059036Y-508000D01*
G01X1941136Y-390100D01*
G01X1843464Y-390100D01*
G01X1774400Y-459164D01*
G01X1931391Y-3671291D02*
G01X1968500Y-3671291D01*
G01X1774400Y-3514300D02*
G01X1931391Y-3671291D01*
G01X1774400Y-459164D02*
G01X1774400Y-3514300D01*
G01X3111500Y-508000D02*
G01X3416300Y-812800D01*
G01X1638300Y-508000D02*
G01X1675218Y-508000D01*
G01X1828718Y-354500D01*
G01X2313036Y-508000D02*
G01X3111500Y-508000D01*
G01X1828718Y-354500D02*
G01X2159536Y-354500D01*
G01X2313036Y-508000D01*
G01X2476500Y-3671291D02*
G01X3416300Y-2731491D01*
G01X3416300Y-1320800D01*
G01X2730500Y-3671291D02*
G01X3581400Y-2820391D01*
G01X3581400Y-1231900D01*
G01X3416300Y-1066800D01*
G01X3365500Y-508000D02*
G01X3416300Y-558800D01*
G01X1384300Y-508000D02*
G01X1471564Y-508000D01*
G01X3161846Y-508000D02*
G01X3365500Y-508000D01*
G01X1471564Y-508000D02*
G01X1660664Y-318900D01*
G01X2972746Y-318900D01*
G01X3161846Y-508000D01*
G01X424307Y-5520893D02*
G01X631114Y-5727700D01*
G01X1208100Y-5727700D02*
G01X1414907Y-5520893D01*
G01X631114Y-5727700D02*
G01X1208100Y-5727700D01*
G01X1414907Y-5520893D02*
G01X1621714Y-5727700D01*
G01X2374900Y-5727700D01*
G01X2581707Y-5520893D01*
G01X2583307Y-5520893D01*
G01X2790114Y-5727700D01*
G01X3390900Y-5727700D01*
G01X3408861Y-5709739D01*
G01X3408861Y-4813300D01*
G01X3390900Y-4795339D01*
G01X2852239Y-4795339D01*
G01X2730500Y-4673600D01*
G01X2730500Y-4481655D01*
G01X2705327Y-4456482D01*
G01X2616200Y-4389657D02*
G01X2641600Y-4364257D01*
G01X2616200Y-4472962D02*
G01X2616200Y-4389657D01*
G01X2641600Y-4498362D02*
G01X2616200Y-4472962D01*
G04 Track End*

M02*

